<svg
      xmlns="http://www.w3.org/2000/svg"
      width="50"
      height="50"
      view-box="0 0 50 50"
    >
      <path d="M32.813 7.484c-5.032 5.094-5.532 5.75-6.016 7.86-.281 1.265-.297 2.922-.047 4.047l.188.828L25 22.047c-1.719 1.64-1.953 1.812-2.219 1.64-.156-.109-1-.906-1.875-1.75l-1.593-1.546-.016-2.032c0-1.812-.047-2.156-.422-3.234-.703-1.922-1.61-3.344-3.094-4.813-4.14-4.093-10.203-4.53-13.469-.953C-2.311 14.406 1.454 23.58 9 25.641c.984.265 1.531.312 2.922.265l1.719-.047 1.921 2.032C16.61 29 17.72 30.234 18 30.609c.281.375.625.766.766.844.203.125 1.125-.656 4.906-4.234l4.656-4.407 1.578 1.579-.875.89c-.468.485-3.328 3.5-6.343 6.703-3 3.188-6 6.313-6.657 6.922-.656.625-1.187 1.203-1.187 1.282 0 .093-.438.609-.969 1.156l-.969 1.015-1.219-1.218c-.671-.672-1.218-1.282-1.203-1.375 0-.078.907-.985 2.016-1.985 1.094-1 2.328-2.172 2.734-2.61l.735-.78-.75-.97c-.422-.546-.844-1-.938-1.03-.172-.063-7.765 7.062-7.844 7.343-.062.282 6.516 6.782 6.657 6.578.062-.093 2.328-2.5 5.031-5.359l4.906-5.203.782.844c.421.453 1.453 1.531 2.265 2.39.828.86 2.031 2.125 2.672 2.813.64.687 1.938 2.047 2.875 3.031l1.688 1.766 3.265-3.25c1.797-1.797 3.266-3.313 3.266-3.36 0-.125-2.235-2.297-6.922-6.703-2.125-2.015-3.844-3.734-3.828-3.843.031-.094.797-.97 1.718-1.922l1.672-1.75 1.078.218c.594.125 1.485.203 2 .172 1.626-.078 2.344-.265 3.735-.968.953-.485 1.687-1.157 5.86-5.297l4.765-4.735-6.172-6.172c-3.39-3.39-6.203-6.171-6.25-6.171-.047 0-2.156 2.109-4.688 4.671zm5.5-.03c.328.312.593.64.593.718 0 .062-1.14 1.25-2.515 2.625l-2.532 2.515.922.922c.5.5.985.922 1.078.922.094 0 1.25-1.094 2.578-2.422 1.329-1.328 2.485-2.421 2.547-2.421.203 0 1.516 1.28 1.516 1.468 0 .094-1.11 1.281-2.453 2.625l-2.469 2.469 2.031 2.031 5.078-5.078.657.672.64.672-3.109 3.125c-1.703 1.719-3.469 3.406-3.922 3.75-1.172.906-2.203 1.25-3.719 1.265-1.078 0-1.422-.062-2.312-.468-1.297-.594-2.484-1.75-3.047-2.969-.36-.781-.422-1.094-.422-2.453 0-2.422.156-2.688 4.438-7 1.937-1.953 3.593-3.547 3.672-3.547.093 0 .421.266.75.578zM9.108 9.858c3.266.485 6.47 3.438 7.22 6.657.858 3.656-1.204 6.609-4.657 6.625-1.36.015-2.188-.188-3.438-.813-1.109-.547-1.39-.734-2.265-1.578-2.032-1.938-2.985-4.172-2.797-6.531.203-2.344 1.703-3.985 4.015-4.375.391-.063.72-.125.75-.14.032 0 .563.062 1.172.155zm10.375 14.625l1.47 1.344-.86.875-.86.86-.5-.454a44.783 44.783 0 01-1.422-1.515l-.937-1.063.688-.687c.359-.375.734-.688.812-.703.078-.016.797.593 1.61 1.343zm8.157 7.72c.515.452 4.562 4.28 7.047 6.655l1.171 1.125-2.5 2.532-1.562-1.625a222.99 222.99 0 01-2.578-2.703c-.563-.594-1.735-1.844-2.625-2.766L25 33.719l.89-1c.5-.547.985-.985 1.063-1 .094 0 .39.218.688.484zm0 0"></path>
    </svg>